<?xml version="1.0" encoding="UTF-8" standalone="no"?>
<svg
   xmlns:dc="http://purl.org/dc/elements/1.1/"
   xmlns:cc="http://creativecommons.org/ns#"
   xmlns:rdf="http://www.w3.org/1999/02/22-rdf-syntax-ns#"
   xmlns:svg="http://www.w3.org/2000/svg"
   xmlns="http://www.w3.org/2000/svg"
   xmlns:sodipodi="http://sodipodi.sourceforge.net/DTD/sodipodi-0.dtd"
   xmlns:inkscape="http://www.inkscape.org/namespaces/inkscape"
   width="142.63226mm"
   height="68.280411mm"
   viewBox="0 0 142.63226 68.280411"
   version="1.1"
   id="svg8"
   inkscape:version="1.0.1 (3bc2e813f5, 2020-09-07)"
   sodipodi:docname="km.svg">
  <defs
     id="defs2">
    <rect
       x="73.270523"
       y="124.58755"
       width="90.034248"
       height="56.085011"
       id="rect16" />
  </defs>
  <sodipodi:namedview
     id="base"
     pagecolor="#ffffff"
     bordercolor="#666666"
     borderopacity="1.0"
     inkscape:pageopacity="0.0"
     inkscape:pageshadow="2"
     inkscape:zoom="0.94312633"
     inkscape:cx="424.46034"
     inkscape:cy="217.34884"
     inkscape:document-units="mm"
     inkscape:current-layer="layer1"
     inkscape:document-rotation="0"
     showgrid="false"
     showguides="true"
     inkscape:guide-bbox="true"
     inkscape:window-width="1920"
     inkscape:window-height="1050"
     inkscape:window-x="0"
     inkscape:window-y="30"
     inkscape:window-maximized="1" />
  <metadata
     id="metadata5">
    <rdf:RDF>
      <cc:Work
         rdf:about="">
        <dc:format>image/svg+xml</dc:format>
        <dc:type
           rdf:resource="http://purl.org/dc/dcmitype/StillImage" />
        <dc:title />
      </cc:Work>
    </rdf:RDF>
  </metadata>
  <g
     inkscape:label="Layer 1"
     inkscape:groupmode="layer"
     id="layer1"
     style="display:inline"
     transform="translate(-35.68392,-117.97547)">
    <text
       xml:space="preserve"
       id="text14"
       style="font-style:normal;font-weight:normal;font-size:10.5833px;line-height:1.25;font-family:sans-serif;white-space:pre;shape-inside:url(#rect16);fill:#000000;fill-opacity:1;stroke:none;" />
    <g
       id="g938"
       transform="translate(2.6909593,36.826264)">
      <path
         d="m 102.93913,81.149203 h 4.11622 v 24.131317 h 0.20581 l 4.06476,-4.52784 7.5121,-8.078071 h 4.99091 l -9.82747,10.496351 10.80507,16.05324 h -4.99091 l -8.79842,-13.53206 -3.96185,4.06477 v 9.46729 h -4.11622 z"
         style="font-style:normal;font-variant:normal;font-weight:normal;font-stretch:normal;font-size:51.4527px;line-height:1.25;font-family:'IBM Plex Sans';-inkscape-font-specification:'IBM Plex Sans';letter-spacing:-1.28632px;stroke-width:1.28632"
         id="path852" />
      <path
         d="M 128.62857,119.22421 V 92.674619 h 4.11621 v 4.322027 h 0.20582 q 0.46307,-1.029054 1.02905,-1.90375 0.61743,-0.926149 1.44068,-1.595034 0.87469,-0.668885 2.00665,-1.029054 1.13196,-0.411622 2.67554,-0.411622 2.62409,0 4.83655,1.286318 2.21247,1.234865 3.29298,4.116216 h 0.1029 q 0.72034,-2.161014 2.67554,-3.756047 2.00666,-1.646487 5.40254,-1.646487 4.06476,0 6.32868,2.675541 2.31537,2.624087 2.31537,7.460643 v 17.03084 h -4.11621 v -16.3105 q 0,-3.55024 -1.38923,-5.351085 -1.38922,-1.800844 -4.42493,-1.800844 -1.23487,0 -2.36682,0.308716 -1.08051,0.308716 -1.95521,0.926149 -0.87469,0.617432 -1.38922,1.595033 -0.51453,0.926149 -0.51453,2.212471 v 18.42006 h -4.11621 v -16.3105 q 0,-3.55024 -1.38923,-5.351085 -1.38922,-1.800844 -4.32202,-1.800844 -1.23487,0 -2.36683,0.308716 -1.13196,0.308716 -2.00665,0.926149 -0.8747,0.617432 -1.44068,1.595033 -0.51453,0.926149 -0.51453,2.212471 v 18.42006 z"
         style="font-style:normal;font-variant:normal;font-weight:normal;font-stretch:normal;font-size:51.4527px;line-height:1.25;font-family:'IBM Plex Sans';-inkscape-font-specification:'IBM Plex Sans';letter-spacing:-1.28632px;stroke-width:1.28632"
         id="path854" />
      <path
         d="m 54.397285,148.81218 q -2.315371,0 -3.344426,-1.23487 -0.977601,-1.23486 -1.234864,-3.08716 h -0.257264 q -0.874696,2.46973 -2.881351,3.70459 -2.006655,1.23487 -4.785101,1.23487 -4.219122,0 -6.585946,-2.16102 -2.315372,-2.16101 -2.315372,-5.8656 0,-3.75605 2.726993,-5.76271 2.778446,-2.00665 8.592602,-2.00665 h 5.248175 v -2.62409 q 0,-2.8299 -1.543581,-4.32203 -1.543581,-1.49212 -4.733648,-1.49212 -2.418277,0 -4.064764,1.0805 -1.595034,1.08051 -2.67554,2.88135 l -2.46973,-2.31537 q 1.080507,-2.16101 3.447331,-3.65314 2.366824,-1.54358 5.968513,-1.54358 4.836554,0 7.512095,2.36682 2.67554,2.36683 2.67554,6.58595 v 14.61257 h 3.03571 v 3.60169 z m -11.834121,-2.88136 q 1.543581,0 2.829898,-0.36016 1.286318,-0.36017 2.212466,-1.02906 0.926149,-0.66888 1.440676,-1.54358 0.514527,-0.8747 0.514527,-1.90375 v -4.37348 h -5.453986 q -3.550237,0 -5.196723,1.02906 -1.595034,1.02905 -1.595034,2.98425 v 1.08051 q 0,1.9552 1.389223,3.03571 1.440676,1.0805 3.858953,1.0805 z"
         style="font-style:normal;font-variant:normal;font-weight:normal;font-stretch:normal;font-size:51.4527px;line-height:1.25;font-family:'IBM Plex Sans';-inkscape-font-specification:'IBM Plex Sans';letter-spacing:-1.28632px;stroke-width:1.28632"
         id="path859" />
      <path
         d="m 80.858516,148.81218 q -2.315372,0 -3.344426,-1.23487 -0.977601,-1.23486 -1.234865,-3.08716 h -0.257263 q -0.874696,2.46973 -2.881352,3.70459 -2.006655,1.23487 -4.785101,1.23487 -4.219122,0 -6.585946,-2.16102 -2.315371,-2.16101 -2.315371,-5.8656 0,-3.75605 2.726993,-5.76271 2.778446,-2.00665 8.592601,-2.00665 h 5.248176 v -2.62409 q 0,-2.8299 -1.543581,-4.32203 -1.543582,-1.49212 -4.733649,-1.49212 -2.418277,0 -4.064763,1.0805 -1.595034,1.08051 -2.675541,2.88135 l -2.46973,-2.31537 q 1.080507,-2.16101 3.447331,-3.65314 2.366825,-1.54358 5.968514,-1.54358 4.836554,0 7.512094,2.36682 2.675541,2.36683 2.675541,6.58595 v 14.61257 h 3.035709 v 3.60169 z m -11.834122,-2.88136 q 1.543581,0 2.829899,-0.36016 1.286317,-0.36017 2.212466,-1.02906 0.926149,-0.66888 1.440676,-1.54358 0.514527,-0.8747 0.514527,-1.90375 v -4.37348 h -5.453987 q -3.550236,0 -5.196723,1.02906 -1.595033,1.02905 -1.595033,2.98425 v 1.08051 q 0,1.9552 1.389223,3.03571 1.440675,1.0805 3.858952,1.0805 z"
         style="font-style:normal;font-variant:normal;font-weight:normal;font-stretch:normal;font-size:51.4527px;line-height:1.25;font-family:'IBM Plex Sans';-inkscape-font-specification:'IBM Plex Sans';letter-spacing:-1.28632px;stroke-width:1.28632"
         id="path861" />
      <path
         d="m 97.492281,149.42911 q -3.704595,0 -6.225777,-1.38922 -2.46973,-1.44068 -4.270575,-3.8075 l 2.932804,-2.36683 q 1.543581,1.9552 3.447331,3.03571 1.90375,1.02905 4.424933,1.02905 2.624083,0 4.064773,-1.13195 1.49213,-1.13196 1.49213,-3.19007 0,-1.54358 -1.02905,-2.62409 -0.97761,-1.13196 -3.601705,-1.54358 l -2.10956,-0.30872 q -1.852298,-0.25726 -3.395879,-0.77179 -1.543581,-0.56598 -2.726993,-1.44067 -1.131959,-0.92615 -1.800844,-2.26392 -0.617433,-1.33777 -0.617433,-3.19007 0,-1.9552 0.720338,-3.39588 0.720338,-1.49213 1.955203,-2.46973 1.286317,-0.9776 3.035709,-1.44067 1.749392,-0.51453 3.756047,-0.51453 3.241527,0 5.402547,1.13196 2.21247,1.13196 3.85895,3.13861 l -2.72699,2.46973 q -0.8747,-1.23486 -2.57264,-2.21246 -1.697948,-1.02906 -4.270583,-1.02906 -2.572635,0 -3.910405,1.13196 -1.286318,1.08051 -1.286318,2.98426 0,1.9552 1.286318,2.8299 1.33777,0.87469 3.8075,1.28632 l 2.058108,0.30871 q 4.42494,0.66889 6.27724,2.57264 1.8523,1.85229 1.8523,4.888 0,3.85896 -2.62409,6.07142 -2.62409,2.21247 -7.203389,2.21247 z"
         style="font-style:normal;font-variant:normal;font-weight:normal;font-stretch:normal;font-size:51.4527px;line-height:1.25;font-family:'IBM Plex Sans';-inkscape-font-specification:'IBM Plex Sans';letter-spacing:-1.28632px;stroke-width:1.28632"
         id="path863" />
      <path
         d="m 111.17157,148.81168 v -26.5496 h 4.11621 v 4.88801 h 0.25727 q 0.72033,-1.90375 2.57263,-3.39588 1.8523,-1.49213 5.09382,-1.49213 h 1.59503 v 4.11622 h -2.41828 q -3.34442,0 -5.24817,1.28632 -1.8523,1.23486 -1.8523,3.13861 v 18.00845 z"
         style="font-style:normal;font-variant:normal;font-weight:normal;font-stretch:normal;font-size:51.4527px;line-height:1.25;font-family:'IBM Plex Sans';-inkscape-font-specification:'IBM Plex Sans';letter-spacing:-1.28632px;stroke-width:1.28632"
         id="path865" />
      <path
         id="path867"
         style="font-style:normal;font-variant:normal;font-weight:normal;font-stretch:normal;font-size:51.4527px;line-height:1.25;font-family:'IBM Plex Sans';-inkscape-font-specification:'IBM Plex Sans';letter-spacing:-1.28632px;stroke-width:1.28632"
         d="m 148.90123,122.26001 -3.653,0.002 h -0.46302 v 20.48919 c -0.0142,0.6767 -0.6786,1.17151 -1.54358,1.73839 -0.58313,0.41162 -1.26933,0.72024 -2.05827,0.92604 -0.75464,0.20582 -1.54354,0.30903 -2.36678,0.30903 -4.04761,0 -6.07147,-2.38407 -6.07147,-7.15202 v -16.31068 h -4.11654 v 17.031 c 0,3.22437 0.80627,5.728 2.41846,7.51169 1.61218,1.74939 3.79033,2.62413 6.53448,2.62413 1.09766,0 2.05824,-0.13694 2.88148,-0.41135 0.82325,-0.27441 1.5263,-0.63462 2.10943,-1.08055 0.58313,-0.48023 1.06342,-1.01212 1.44074,-1.59525 0.29263,-0.43895 0.54876,-0.87777 0.77205,-1.31672 v 3.78427 h 0.46302 v 0.003 l 3.653,-0.002 v -5.3e-4 -26.54722 z"
         sodipodi:nodetypes="ccccccssccscsscccccccccc" />
      <path
         d="m 171.50901,144.48602 h -0.20581 q -2.41827,4.93946 -7.76935,4.93946 -2.46973,0 -4.47639,-0.9776 -2.00665,-0.9776 -3.44733,-2.77845 -1.38922,-1.80084 -2.16101,-4.37348 -0.72034,-2.57263 -0.72034,-5.7627 0,-3.19007 0.72034,-5.7627 0.77179,-2.57264 2.16101,-4.37348 1.44068,-1.80085 3.44733,-2.77845 2.00666,-0.9776 4.47639,-0.9776 2.77844,0 4.73364,1.23486 2.00666,1.18342 3.03571,3.7046 h 0.20581 v -15.84743 h 4.11622 v 38.075 h -4.11622 z m -6.8432,1.23486 q 1.38922,0 2.62408,-0.36016 1.28632,-0.36017 2.21247,-1.02906 0.92615,-0.72034 1.44067,-1.69794 0.56598,-1.02905 0.56598,-2.31537 v -9.87892 q 0,-1.08051 -0.56598,-2.00665 -0.51452,-0.97761 -1.44067,-1.64649 -0.92615,-0.66889 -2.21247,-1.02905 -1.23486,-0.41163 -2.62408,-0.41163 -3.49879,0 -5.50544,2.21247 -2.00666,2.16101 -2.00666,5.71125 v 4.52784 q 0,3.55023 2.00666,5.7627 2.00665,2.16101 5.50544,2.16101 z"
         style="font-style:normal;font-variant:normal;font-weight:normal;font-stretch:normal;font-size:51.4527px;line-height:1.25;font-family:'IBM Plex Sans';-inkscape-font-specification:'IBM Plex Sans';letter-spacing:-1.28632px;stroke-width:1.28632"
         id="path869" />
    </g>
  </g>
</svg>
